<?xml version="1.0" ?><svg viewBox="0 0 48 48" xmlns="http://www.w3.org/2000/svg"><title/><g data-name="10-Image File" id="_10-Image_File"><path d="M42.71,8.29l-8-8A1,1,0,0,0,34,0H8A3,3,0,0,0,5,3V45a3,3,0,0,0,3,3H40a3,3,0,0,0,3-3V9A1,1,0,0,0,42.71,8.29ZM35,3.41,39.59,8H36a1,1,0,0,1-1-1ZM41,45a1,1,0,0,1-1,1H8a1,1,0,0,1-1-1V3A1,1,0,0,1,8,2H33V7a3,3,0,0,0,3,3h5Z"/><path d="M12,18a2,2,0,0,0-2,2V40a2,2,0,0,0,2,2H36a2,2,0,0,0,2-2V20a2,2,0,0,0-2-2Zm0,22v-.6l9-9L30.59,40Zm24,0H33.41l-5.94-5.94,3.59-3.59L36,35.41Zm0-7.41-4.23-4.23a1,1,0,0,0-1.41,0l-4.29,4.29-4.39-4.39c-.71-.65-.79-.56-2.95,1.59L12,36.57V20H36Z"/></g></svg>