<?xml version="1.0" encoding="utf-8"?>
<!-- Generator: Adobe Illustrator 24.3.0, SVG Export Plug-In . SVG Version: 6.00 Build 0)  -->
<svg version="1.1" id="Layer_1" xmlns="http://www.w3.org/2000/svg" xmlns:xlink="http://www.w3.org/1999/xlink" x="0px" y="0px"
	 viewBox="0 0 500 500" style="enable-background:new 0 0 500 500;" xml:space="preserve">
<style type="text/css">
	.st0{fill:#F5F5F5;}
</style>
<g>
	<g>
		<path class="st0" d="M266,186.6c4.8-4.8,9.2-9.1,13.2-13c-12.8-14.2-22.3-23.6-22.9-24.2c-3.6-3.6-9.5-3.6-13.1,0s-3.6,9.5,0,13.1
			C243.4,162.6,253,172.3,266,186.6z"/>
		<path class="st0" d="M229.2,310c-1.2,1-2.4,2-3.6,3c-3.6,3-7.2,6-10.6,8.8c15.4,17.7,27.5,30,28.3,30.8c1.8,1.8,4.2,2.8,6.6,2.8
			c2.3,0,4.7-0.9,6.5-2.7c3.6-3.6,3.7-9.4,0.1-13.1C256.3,339.5,244.4,327.3,229.2,310z"/>
		<path class="st0" d="M182.1,281c1.8-2.2,3.5-4.3,5.1-6.2c2.3-2.8,4.7-5.7,7.1-8.5c-28.1-39.4-32-60.5-25.6-66.8
			c0.7-0.7,1.4-1.5,2.9-1.5c0,0,0,0,0,0c4,0,12.3,3.3,28.9,17.3c6.6,5.5,13.6,12.3,20.8,19.3c4.2-4.7,8.3-9.4,12.3-13.9
			c-24-23.4-45.1-40.7-62-40.7c0,0-0.1,0-0.1,0c-6.2,0-11.7,2.4-15.9,6.6c-10.2,10.2-10.7,26.2-1.6,47.5
			C159.6,247.3,169,263.1,182.1,281z"/>
		<path class="st0" d="M321.6,225.4c-3.2,3.3-6.7,6.7-10.4,10.4c-0.9,0.9-1.9,1.9-2.9,2.8c22.2,31.3,26.1,47.3,26.1,54.6
			c0,4.7-1.5,7.1-2.7,8.3c-0.7,0.7-1.4,1.5-2.9,1.5c0,0,0,0,0,0c-4.1,0-12.4-3.3-29.1-17.3c-6.5-5.5-13.6-12.2-20.7-19.2
			c-4.5,4.1-9.1,8.2-13.8,12.4c24.6,24.1,46.2,42.1,63.5,42.1c0,0,0.1,0,0.1,0c6.2,0,11.7-2.3,16-6.6c5.4-5.4,8.1-12.5,8.1-21.1
			c0-11.8-5.2-26.5-16-44.7C332.8,241.4,327.6,233.6,321.6,225.4z"/>
		<path class="st0" d="M354.6,162.7c0-0.5-0.1-0.9-0.2-1.3c-0.1-0.4-0.2-0.9-0.3-1.3c-0.9-3-3-5.6-5.8-8.5c-0.5-0.5-0.9-0.9-1.4-1.3
			c0,0-0.1-0.1-0.1-0.1c-0.4-0.4-0.9-0.8-1.3-1.1c0,0-0.1-0.1-0.1-0.1c-0.5-0.4-0.9-0.7-1.4-1c0,0-0.1,0-0.1-0.1
			c-0.4-0.3-0.9-0.6-1.3-0.8c0,0-0.1-0.1-0.1-0.1c-0.5-0.3-0.9-0.5-1.4-0.7c0,0,0,0,0,0c-0.5-0.2-0.9-0.4-1.4-0.5c0,0-0.1,0-0.1,0
			c-0.5-0.1-1-0.2-1.4-0.3c0,0-0.1,0-0.1,0c-0.5-0.1-1-0.1-1.6-0.1c-0.1,0-0.1,0-0.2,0c-0.2,0-0.5,0-0.7,0c-0.1,0-0.2,0-0.2,0
			c-0.3,0-0.6,0.1-0.9,0.1c0,0,0,0,0,0c-0.3,0-0.6,0.1-0.9,0.2c-0.1,0-0.2,0-0.3,0.1c-0.3,0.1-0.6,0.1-0.9,0.2c-0.1,0-0.1,0-0.2,0
			c-0.3,0.1-0.7,0.2-1.1,0.3c-0.1,0-0.1,0-0.2,0.1c-0.3,0.1-0.6,0.2-0.9,0.3c-0.1,0-0.2,0.1-0.2,0.1c-0.8,0.3-1.5,0.7-2.3,1.1
			c-0.1,0-0.2,0.1-0.3,0.1c-0.4,0.2-0.7,0.4-1.1,0.6c0,0-0.1,0.1-0.1,0.1c-0.4,0.2-0.9,0.5-1.3,0.8c-0.1,0-0.1,0.1-0.2,0.1
			c-0.4,0.2-0.8,0.5-1.2,0.7c-0.1,0.1-0.2,0.1-0.3,0.2c-0.9,0.6-1.9,1.3-2.9,2c-0.1,0.1-0.2,0.1-0.3,0.2c-0.5,0.3-0.9,0.7-1.4,1
			c-0.1,0-0.1,0.1-0.2,0.1c-0.5,0.4-1.1,0.8-1.7,1.3c-0.1,0.1-0.1,0.1-0.2,0.2c-0.5,0.4-1,0.8-1.5,1.2c-0.1,0.1-0.2,0.2-0.3,0.3
			c-1.2,0.9-2.4,1.9-3.6,3c-0.1,0.1-0.3,0.2-0.4,0.3c-0.6,0.5-1.1,1-1.7,1.5c-0.1,0.1-0.2,0.1-0.2,0.2c-0.7,0.6-1.3,1.2-2,1.8
			c-0.1,0.1-0.2,0.2-0.3,0.3c-0.6,0.5-1.2,1.1-1.8,1.6c-0.1,0.1-0.3,0.3-0.4,0.4c-1.4,1.3-2.9,2.6-4.4,4.1c-0.2,0.2-0.3,0.3-0.5,0.5
			c-0.7,0.6-1.3,1.2-2,1.9c-0.1,0.1-0.3,0.2-0.4,0.4c-0.8,0.7-1.6,1.5-2.4,2.3c-0.2,0.1-0.3,0.3-0.5,0.4c-0.7,0.7-1.4,1.3-2.1,2
			c-0.2,0.2-0.4,0.4-0.6,0.6c-1.4,1.3-2.8,2.7-4.2,4.1c-0.4,0.4-0.8,0.7-1.1,1.1c-0.2,0.2-0.5,0.5-0.7,0.7c-0.7,0.7-1.5,1.5-2.3,2.2
			c-0.2,0.2-0.4,0.4-0.6,0.6c-0.9,0.9-1.9,1.9-2.9,2.8c-0.2,0.2-0.5,0.5-0.7,0.7c-0.8,0.8-1.6,1.6-2.4,2.4c-0.3,0.3-0.6,0.6-0.9,0.9
			c-0.5,0.5-1.1,1.1-1.6,1.6c-0.5,0.5-0.9,0.9-1.4,1.4c0,0-0.1,0.1-0.1,0.1c-2.7,2.7-5.6,5.6-8.5,8.7s-6,6.3-9.1,9.6
			c-2.3,2.5-4.7,5.1-7.1,7.7c-0.8,0.9-1.6,1.8-2.4,2.6c-1.1,1.2-2.2,2.4-3.3,3.7c-2.1,2.4-4.3,4.8-6.5,7.2c2.2-2.4,4.3-4.8,6.5-7.2
			c-2.7-2.7-5.3-5.3-7.9-7.8c-4,4.5-8.1,9.1-12.3,13.8c2.6,2.5,5.3,5.2,7.9,7.8c1.1-1.3,2.3-2.6,3.4-3.8c-1.1,1.3-2.3,2.6-3.4,3.8
			c-0.5,0.6-1.1,1.2-1.6,1.8c-4.1,4.7-8.3,9.6-12.4,14.4c-3.3,3.9-6.6,7.7-9.8,11.6c-1.4,1.7-2.9,3.4-4.3,5.1
			c-0.2,0.2-0.3,0.4-0.5,0.6c-1.6,1.9-3.2,3.8-4.7,5.7s-3.1,3.8-4.6,5.7c-0.7,0.9-1.5,1.8-2.2,2.7c-0.8,1-1.6,1.9-2.3,2.9
			c-0.7,0.9-1.5,1.8-2.2,2.7c-1.5,1.8-2.9,3.6-4.3,5.4c-2.1,2.7-4.2,5.3-6.1,7.8c-4.6,6-8.9,11.6-12.6,16.7
			c-1.1,1.5-2.1,2.9-3.1,4.3c-0.5,0.7-1,1.4-1.4,2c-1.4,2-2.7,3.9-3.9,5.7c-3.6,5.3-6.1,9.7-7.4,12.6c-0.1,0.2-0.1,0.4-0.2,0.5
			c0,0.1,0,0.1,0,0.2c0,0.1,0,0.2-0.1,0.4c0,0.1,0,0.1,0,0.2c0,0.1,0,0.2,0,0.3c0,0.1,0,0.1,0,0.2c0,0.1,0,0.2,0,0.3
			c0,0.1,0,0.1,0,0.2c0,0.1,0.1,0.3,0.1,0.4c0,0,0,0,0,0.1c0.1,0.2,0.1,0.3,0.2,0.4c0,0,0.1,0.1,0.1,0.1c0.1,0.1,0.1,0.2,0.2,0.3
			c0,0,0.1,0.1,0.1,0.1c0.1,0.1,0.1,0.2,0.2,0.2c0,0,0.1,0.1,0.1,0.1c0.1,0.1,0.2,0.1,0.2,0.2c0,0,0.1,0.1,0.1,0.1
			c0.1,0.1,0.2,0.1,0.3,0.2c0,0,0.1,0,0.1,0.1c0.1,0.1,0.3,0.1,0.4,0.2c0,0,0.1,0,0.1,0c0.1,0,0.2,0.1,0.3,0.1c0.1,0,0.1,0,0.2,0
			c0.1,0,0.2,0,0.3,0c0.1,0,0.1,0,0.2,0c0.1,0,0.2,0,0.2,0c0.2,0,0.3,0,0.5,0c0.1,0,0.1,0,0.2,0c0.2-0.1,0.4-0.1,0.7-0.2
			c1-0.4,2.1-1,3.4-1.7c0.8-0.5,1.8-1,2.7-1.6s2-1.2,3.1-1.9c3.2-2.1,6.9-4.6,11-7.6c1.4-1,2.8-2,4.2-3.1c2.2-1.6,4.4-3.3,6.8-5.1
			s4.8-3.7,7.3-5.6c1.7-1.3,3.4-2.6,5.1-4c0.9-0.7,1.7-1.4,2.6-2.1c1.7-1.4,3.5-2.8,5.3-4.3s3.6-2.9,5.4-4.4
			c0.1-0.1,0.3-0.2,0.4-0.3c1.7-1.4,3.4-2.8,5.1-4.2c2.8-2.3,5.6-4.7,8.5-7.1c0.2-0.2,0.4-0.4,0.7-0.6c1.7-1.4,3.4-2.8,5-4.3
			c1-0.8,1.9-1.6,2.9-2.4c1.9-1.6,3.8-3.3,5.8-4.9c1.4-1.2,2.8-2.4,4.2-3.6c1-0.9,2.1-1.8,3.1-2.7c1.9-1.6,3.7-3.2,5.5-4.8
			c1-0.9,2-1.8,3-2.7c1.4-1.2,2.8-2.5,4.2-3.7c0.6-0.5,1.1-1,1.7-1.5c2.7,2.7,5.3,5.3,7.9,7.8c4.7-4.2,9.3-8.4,13.8-12.4
			c-2.6-2.5-5.3-5.2-7.9-7.8c-1.4,1.3-2.9,2.6-4.3,3.9c1.5-1.3,2.9-2.6,4.3-3.9c0.4-0.3,0.7-0.7,1.1-1c0.9-0.8,1.8-1.6,2.7-2.4
			c1.8-1.6,3.5-3.2,5.2-4.8c7.9-7.3,15.2-14.3,21.6-20.7c0.6-0.5,1.1-1.1,1.6-1.6c4.1-4.1,8-8,11.5-11.6c4.5-4.6,8.6-8.8,12.2-12.7
			c1.8-1.9,3.5-3.7,5-5.4c2.1-2.3,4.1-4.5,5.8-6.5c1.3-1.5,2.6-3,3.7-4.4c2.3-2.8,4.3-5.4,5.9-7.7c0.5-0.8,1.1-1.5,1.5-2.3
			c0.2-0.4,0.5-0.7,0.7-1.1c0.4-0.7,0.9-1.4,1.2-2.1c0.9-1.7,1.7-3.2,2.2-4.6c0.2-0.6,0.4-1.1,0.6-1.7c0.3-1.1,0.5-2.1,0.6-3.1
			C354.6,164.1,354.6,163.4,354.6,162.7z M319.6,188c-6,6-11.9,10.8-16.4,13.4c-3.6,2.1-6.3,2.9-7.4,1.9c-1.1-1.1-0.2-4.1,2.3-8
			c2.7-4.4,7.3-10.1,13-15.8c10.8-10.8,21.5-17.6,23.8-15.3S330.4,177.2,319.6,188z"/>
	</g>
</g>
</svg>
